<svg width="19" height="26" viewBox="0 0 19 26" fill="none" xmlns="http://www.w3.org/2000/svg">
<path d="M12.3777 23.8146C3.33248 20.6409 -1.22154 11.4878 2.20607 3.37054C2.36071 3.00432 2.52893 2.64645 2.71011 2.29725C2.91804 1.8965 3.02195 1.6961 3.22169 1.55058C3.38711 1.43005 3.62628 1.34462 3.83935 1.32988C4.09655 1.31206 4.35025 1.40108 4.85754 1.57907L7.83441 2.62356C8.26108 2.77327 8.47441 2.84812 8.63061 2.97527C8.76866 3.08762 8.8743 3.22848 8.93829 3.38551C9.01074 3.56328 9.00768 3.76877 9.00157 4.17973L8.94969 7.65287C8.94251 8.131 8.93897 8.37008 8.84074 8.56363C8.75412 8.73429 8.61629 8.8794 8.44278 8.9829C8.24605 9.10028 7.98486 9.14021 7.46236 9.22001L5.68745 9.49128C5.89449 12.4489 7.30718 15.2834 9.62486 17.4051L11.0405 16.4118C11.4572 16.1194 11.6656 15.9732 11.8951 15.9217C12.0974 15.8762 12.3105 15.8822 12.5104 15.9393C12.7372 16.0041 12.9382 16.162 13.3405 16.4779L16.262 18.7725C16.6077 19.0441 16.7806 19.1799 16.8797 19.347C16.9673 19.4947 17.0136 19.6591 17.0144 19.8258C17.0153 20.0145 16.9345 20.206 16.7728 20.5889L15.6447 23.2603C15.4525 23.7156 15.3564 23.9432 15.1691 24.1016C15.014 24.2328 14.7826 24.3338 14.5715 24.3625C14.3166 24.3972 14.0803 24.3316 13.6078 24.2006C13.1961 24.0864 12.7858 23.9578 12.3777 23.8146Z" stroke="#E30613" stroke-width="2" stroke-linecap="round" stroke-linejoin="round"/>
</svg>
